<svg width="59" height="20" viewBox="0 0 59 20" fill="none" xmlns="http://www.w3.org/2000/svg">
<path d="M0 19.9148C1.63656 18.2571 3.12889 16.7648 4.59429 15.2436C4.97891 14.8436 5.41738 14.8225 5.90584 14.8225C10.7777 14.8225 15.4572 14.8225 20.3291 14.8225C21.2503 14.8225 22.0022 14.2397 22.0022 13.2782C22.0022 12.5089 21.2503 11.8436 20.3291 11.8436C16.4829 11.8436 12.704 11.8436 8.8578 11.8436C7.77327 11.8504 6.70314 11.5951 5.73853 11.0993C4.03467 10.2224 3.20196 8.59931 3.62312 6.72428C3.8227 5.82522 4.13477 4.95489 4.55198 4.13386C5.6693 1.98383 7.64625 0.964591 9.87897 0.429969C10.9952 0.171107 12.137 0.0382236 13.2829 0.0338097C18.7925 -0.00465229 24.3041 0.0165018 29.8215 0.0145786H30.9177C30.6523 0.322275 30.5042 0.516508 30.3311 0.689587C29.0657 1.95883 27.7753 3.20693 26.533 4.49925C26.3415 4.70942 26.1057 4.87449 25.8426 4.98256C25.5796 5.09064 25.2958 5.13903 25.0118 5.12426C20.6874 5.10375 16.3617 5.10375 12.0348 5.12426C11.559 5.13642 11.0864 5.2055 10.6271 5.33003C9.85781 5.52234 9.63666 6.17812 9.4732 6.83582C9.37127 7.2666 9.85781 7.8166 10.379 7.88583C11.0125 7.97504 11.6509 8.02514 12.2905 8.03584C16.1367 8.06661 19.9829 8.0743 23.8291 8.0993C25.0479 8.1014 26.2398 8.4575 27.26 9.12431C28.6061 10.0012 28.9177 11.3993 28.6388 12.8513C27.8503 16.9436 25.2945 19.1975 21.2483 19.7187C20.0766 19.8568 18.8973 19.9211 17.7175 19.911C12.1098 19.9283 6.50393 19.911 0.896165 19.911L0 19.9148Z" fill="black"/>
<path d="M30.168 11.8348C29.9334 9.64053 29.2469 7.79628 27.4372 6.4501C27.7526 6.12702 28.0142 5.85971 28.2718 5.59625C29.9699 3.89623 31.6738 2.20005 33.3623 0.492337C33.4964 0.336836 33.6627 0.212288 33.8496 0.127291C34.0365 0.0422941 34.2397 -0.001128 34.445 2.22701e-05C42.231 0.014125 50.0176 0.0192536 57.8049 0.0154074C57.9297 0.0267138 58.0537 0.045984 58.1761 0.0731003C57.9838 0.300026 57.828 0.490413 57.6588 0.661569C56.4145 1.90966 55.1472 3.13468 53.9337 4.41162C53.728 4.6485 53.4713 4.83561 53.1828 4.95887C52.8943 5.08212 52.5816 5.1383 52.2683 5.12316C46.2125 5.09432 40.1528 5.10778 34.0988 5.10778C33.8431 5.10778 33.5854 5.08663 33.3296 5.10778C32.2584 5.21547 31.5334 6.47126 32.0469 7.4155C32.193 7.68089 32.5584 7.86935 32.8642 7.99243C33.1181 8.08859 33.4411 8.03666 33.72 8.03666C38.6874 8.03666 43.6547 8.02512 48.6202 8.05589C49.9284 8.03744 51.2359 8.12555 52.5298 8.31936C54.1472 8.59821 55.4953 9.36937 55.8799 11.154C56.0064 11.6502 56.0332 12.1666 55.9587 12.6733C55.2529 16.2598 53.4587 18.606 49.651 19.508C48.471 19.7752 47.2646 19.9088 46.0548 19.906C39.9989 19.9445 33.9392 19.9234 27.8872 19.9234C27.6122 19.9234 26.1834 19.8984 25.793 19.881C28.2718 18.7502 29.1199 16.781 29.6565 14.881C35.8661 14.881 41.8758 14.8291 47.9625 14.8291C49.1606 14.8291 49.9317 14.4446 49.9317 13.3617C49.9317 12.2117 48.8471 11.8617 47.7432 11.8617C42.297 11.8489 36.8482 11.8489 31.3969 11.8617L30.168 11.8348Z" fill="#FF6915"/>
</svg>
